<svg id="Layer_1" data-name="Layer 1" xmlns="http://www.w3.org/2000/svg" viewBox="0 0 18 18.5"><defs><style>.cls-1{fill:#aaa;}.cls-1,.cls-2,.cls-5{stroke:#222;stroke-linecap:round;stroke-linejoin:round;}.cls-2{fill:#74c7ff;}.cls-3{fill:#d8d8d8;}.cls-4{fill:#bca104;}.cls-5{fill:none;}</style></defs><title>equipment icon</title><path class="cls-1" d="M-.5-.5h15v13l-4,4h-7l-4-4Z" transform="translate(1.5 1)"/><rect class="cls-2" x="8" y="4.5" width="1" height="7"/><polygon class="cls-2" points="5 8.5 5.2 8.5 12 8.5 12 7.5 5 7.5 5 8.5"/><polygon class="cls-3" points="2.5 13 14.5 1 17.5 1 17.5 4 5.5 16 2.5 13"/><polyline class="cls-4" points="1.5 12 3.5 11 7.5 15 6.5 17 5.5 17 1.5 13 1.5 12"/><polygon class="cls-4" points="0.5 16 0.5 18 2.5 18 5.5 15 3.5 13 0.5 16"/><polygon class="cls-5" points="17.5 1 14.5 1 4 11.5 3.5 11 1.5 12 1.5 13 2.5 14 0.5 16 0.5 18 2.5 18 4.5 16 5.5 17 6.5 17 7.5 15 7 14.5 17.5 4 17.5 1"/></svg>