<svg id="Layer_1" data-name="Layer 1" xmlns="http://www.w3.org/2000/svg" viewBox="0 0 15.35 13.93">
    <defs>
        <style>
        .cls-1 {
            fill: #0006fe;
        }

        .cls-2 {
            fill: #915846;
        }

        .cls-3 {
            fill: none;
            stroke: #222;
            stroke-linecap: round;
            stroke-linejoin: round;
            stroke-width: 0.63px;
        }

        .cls-4 {
            fill: #dde800;
        }
        </style>
    </defs>
    <title>magic icon</title>
    <path class="cls-1" d="M6.59,5.12c-.63.63-1.41,2-2.52,2.52a1.21,1.21,0,0,1-1.26,0c-.23-.24-.16-.68,0-1.26A8.61,8.61,0,0,1,5.33,2a1.9,1.9,0,0,1,1.26-.63A1.85,1.85,0,0,1,7.85,2c.74.73.86,1.54,1.25,3.14A14.26,14.26,0,0,0,10.36,8.9c.49.85,1.05,1.81,1.89,1.89,1.14.1,1.77-1.49,2.52-1.26s1,1.55.63,2.52c-.31.73-.76,1.48-4.72,2.2-2.71.49-6.57.68-8.5-.32A2.38,2.38,0,0,1,.92,12.68a2.43,2.43,0,0,1,0-1.26c.08-.39.24-1.18.63-1.26s.53.49,1.26.63a1.33,1.33,0,0,0,.63,0c.56-.18.87-.91,1.26-2.52A14.08,14.08,0,0,1,6,5.75" transform="translate(-0.52 -1.03)" />
    <path class="cls-2" d="M4.07,10.16a3.72,3.72,0,0,0,1.26.63,5.46,5.46,0,0,0,3.77-.63c.61-.37.81-.67,1.26-.63.63.05,1.33.73,1.26,1.26-.13,1-3.17,1.74-5.66,1.26-1-.19-2.52-.69-2.52-1.26C3.44,10.53,3.77,10.31,4.07,10.16Z" transform="translate(-0.52 -1.03)" />
    <path class="cls-3" d="M6.59,5.12c-.63.63-1.41,2-2.52,2.52a1.21,1.21,0,0,1-1.26,0c-.23-.24-.16-.68,0-1.26A8.61,8.61,0,0,1,5.33,2a1.9,1.9,0,0,1,1.26-.63A1.85,1.85,0,0,1,7.85,2c.74.73.86,1.54,1.25,3.14A14.26,14.26,0,0,0,10.36,8.9c.49.85,1.05,1.81,1.89,1.89,1.14.1,1.77-1.49,2.52-1.26s1,1.55.63,2.52c-.31.73-.76,1.48-4.72,2.2-2.71.49-6.57.68-8.5-.32A2.38,2.38,0,0,1,.92,12.68a2.43,2.43,0,0,1,0-1.26c.08-.39.24-1.18.63-1.26s.53.49,1.26.63a1.33,1.33,0,0,0,.63,0c.56-.18.87-.91,1.26-2.52A14.08,14.08,0,0,1,6,5.75" transform="translate(-0.52 -1.03)" />
    <path class="cls-4" d="M9.1,9.53c-.35.07-.51.74-.63,1.26s-.23,1,0,1.26a1.44,1.44,0,0,0,1.89-.63C10.7,10.56,9.63,9.42,9.1,9.53Z" transform="translate(-0.52 -1.03)" />
</svg>