<svg id="Layer_1" data-name="Layer 1" xmlns="http://www.w3.org/2000/svg" viewBox="0 0 23 22"><defs><style>.cls-1{fill:#c4b89b;}.cls-1,.cls-2,.cls-5{stroke:#222;stroke-linecap:round;stroke-linejoin:round;}.cls-2{fill:#68432f;}.cls-3{fill:#0c6da3;}.cls-4{fill:#915846;}.cls-5{fill:none;stroke-width:0.33px;}.cls-6{fill:#dde800;}</style></defs><title>spellbook icon</title><polygon class="cls-1" points="0.5 14.5 12.5 21.5 22.5 10.5 22.5 5.5 10.5 0.5 0.5 9.5 0.5 14.5"/><polygon class="cls-2" points="0.5 10.07 12.5 16.5 22.5 5.5 22.5 3.5 18.5 3.5 10.5 0.5 0.5 10.07"/><path class="cls-3" d="M7.13,3.69a5.81,5.81,0,0,1-1.81.41c-.24,0-.51-.16-.56-.36s.12-.34.36-.55A4.37,4.37,0,0,1,7.46,2,1,1,0,0,1,8.19,2a.91.91,0,0,1,.38.63,3.14,3.14,0,0,1-.32,1.74,7,7,0,0,0-.5,2c0,.51,0,1.09.3,1.36s1.2-.16,1.47.15,0,1-.43,1.29-.8.21-2.75-.58C5,8.09,3.3,7.33,2.73,6.35a1.23,1.23,0,0,1-.21-.91,1.35,1.35,0,0,1,.35-.56c.15-.15.44-.45.63-.38s.1.37.38.63a.65.65,0,0,0,.28.18c.3.08.64-.16,1.26-.76a7.28,7.28,0,0,1,1.26-.76" transform="translate(4.5 2.5)"/><path class="cls-4" d="M4.62,5.21A1.81,1.81,0,0,0,5,5.84a2.81,2.81,0,0,0,1.84.77c.37,0,.54-.06.73.08a.73.73,0,0,1,.2.91c-.34.41-1.88-.12-2.85-1-.38-.36-.92-1-.76-1.26S4.44,5.19,4.62,5.21Z" transform="translate(4.5 2.5)"/><path class="cls-5" d="M7.13,3.69a5.81,5.81,0,0,1-1.81.41c-.24,0-.51-.16-.56-.36s.12-.34.36-.55A4.37,4.37,0,0,1,7.46,2,1,1,0,0,1,8.19,2a.91.91,0,0,1,.38.63,3.14,3.14,0,0,1-.32,1.74,7,7,0,0,0-.5,2c0,.51,0,1.09.3,1.36s1.2-.16,1.47.15,0,1-.43,1.29-.75.44-2.7-.35C5.06,8.32,3.3,7.33,2.73,6.35a1.23,1.23,0,0,1-.21-.91,1.35,1.35,0,0,1,.35-.56c.15-.15.44-.45.63-.38s.1.37.38.63a.65.65,0,0,0,.28.18c.3.08.64-.16,1.26-.76a7.28,7.28,0,0,1,1.26-.76" transform="translate(4.5 2.5)"/><path class="cls-6" d="M7,6.34c-.17-.07-.43.18-.63.38S6,7.1,6,7.27a.75.75,0,0,0,1,.25A.82.82,0,0,0,7,6.34Z" transform="translate(4.5 2.5)"/></svg>