<svg id="Layer_1" data-name="Layer 1" xmlns="http://www.w3.org/2000/svg" viewBox="0 0 11.25 15.75"><defs><style>.cls-1{fill:#c1a476;}.cls-1,.cls-2{stroke:#222;stroke-linecap:round;stroke-linejoin:round;stroke-width:0.75px;}.cls-2{fill:none;}</style></defs><title>strength icon</title><polygon class="cls-1" points="3.38 14.63 3.38 10.13 0.38 6.38 0.38 4.88 4.88 0.38 5.63 0.38 7.88 1.88 10.88 4.13 10.88 6.38 10.13 8.63 9.38 10.88 9.38 15.38 3.38 15.38 3.38 14.63"/><polyline class="cls-2" points="8.63 2.63 7.88 4.13 6.38 4.88"/><polyline class="cls-2" points="6.38 1.13 5.63 2.63 5.12 3.54"/><polyline class="cls-2" points="10.88 4.13 8.63 6.38 6.38 6.38 6.38 4.88 3.38 1.88"/><polyline class="cls-2" points="10.13 7.13 9.38 7.88 7.88 6.38"/><line class="cls-2" x1="5.63" y1="8.63" x2="7.13" y2="8.63"/><line class="cls-2" x1="7.88" y1="10.13" x2="7.13" y2="10.13"/><polyline class="cls-2" points="4.13 4.88 4.13 5.63 5.63 6.38 7.13 8.63 7.13 10.88"/><line class="cls-2" x1="3.38" y1="5.63" x2="4.13" y2="5.63"/></svg>