<?xml version="1.0" encoding="utf-8"?>
<!-- Generator: Adobe Illustrator 23.0.1, SVG Export Plug-In . SVG Version: 6.00 Build 0)  -->
<svg version="1.1" id="Layer_1" xmlns="http://www.w3.org/2000/svg" xmlns:xlink="http://www.w3.org/1999/xlink" x="0px" y="0px"
	 viewBox="0 0 1000 1000" style="enable-background:new 0 0 1000 1000;" xml:space="preserve">
<style type="text/css">
	.st0{fill:#74C7FF;stroke:#EEEEEE;stroke-width:10;stroke-miterlimit:10;}
</style>
<path class="st0" d="M511.39,737.5c-55.11-2.79-104.8,37.33-119.75,88.24c-10.64,36.23-4.85,81.93,25.21,113.45
	c40.38,42.34,115.1,49.18,163.87,6.3c47.32-41.6,49.68-111.96,18.91-157.57C597.21,784.35,566.41,740.29,511.39,737.5z"/>
<path class="st0" d="M741.98,490.84c-2.79,55.11,37.33,104.8,88.24,119.75c36.23,10.64,81.93,4.85,113.45-25.21
	c42.34-40.38,49.18-115.1,6.3-163.87c-41.6-47.32-111.96-49.68-157.57-18.91C788.83,405.01,744.77,435.82,741.98,490.84z"/>
<path class="st0" d="M495.32,264.94c55.11,2.79,104.8-37.33,119.75-88.24c10.64-36.23,4.85-81.93-25.21-113.45
	c-40.38-42.34-115.1-49.18-163.87-6.3c-47.32,41.6-49.68,111.96-18.91,157.57C409.49,218.09,440.3,262.15,495.32,264.94z"/>
<path class="st0" d="M264.72,511.6c2.79-55.11-37.33-104.8-88.24-119.75c-36.23-10.64-81.93-4.85-113.45,25.21
	c-42.34,40.38-49.18,115.1-6.3,163.87c41.6,47.32,111.96,49.68,157.57,18.91C217.88,597.43,261.93,566.62,264.72,511.6z"/>
</svg>
