<svg id="Layer_1" data-name="Layer 1" xmlns="http://www.w3.org/2000/svg" viewBox="0 0 30.83 24.19"><defs><style>.cls-1{fill:#74c7ff;}.cls-1,.cls-2,.cls-3,.cls-4{stroke:#fff;stroke-miterlimit:10;}.cls-1,.cls-2,.cls-4{stroke-width:2px;}.cls-2{fill:#ff8274;}.cls-3{fill:#eee;}.cls-4{fill:#9eff74;}</style></defs><title>strawberry thing</title><path class="cls-1" d="M22.89,9.31a8.6,8.6,0,0,0-8.4,6.19,8.3,8.3,0,0,0,1.77,8,8.49,8.49,0,0,0,11.49.44,8.58,8.58,0,0,0,1.33-11A8.46,8.46,0,0,0,22.89,9.31Z" transform="translate(-0.68 -3.51)"/><path class="cls-2" d="M10.79,9.31a8.6,8.6,0,0,0-8.4,6.19C1.64,18,1,22.7,3.11,24.91c2.83,3,9.12,2,12.54-1a8.58,8.58,0,0,0,1.32-11A8.46,8.46,0,0,0,10.79,9.31Z" transform="translate(-0.68 -3.51)"/><path class="cls-3" d="M5,14.72c-.6.34-.82,1.11-.64,1.27s2-.88,1.91-1.27C6.22,14.5,5.53,14.43,5,14.72Z" transform="translate(-0.68 -3.51)"/><path class="cls-3" d="M5,21.09c-.6.34-.82,1.11-.64,1.27s2-.88,1.91-1.27C6.22,20.87,5.53,20.8,5,21.09Z" transform="translate(-0.68 -3.51)"/><path class="cls-3" d="M8.84,17.27c-.6.34-.82,1.11-.64,1.27s2.05-.88,1.91-1.27C10,17.05,9.35,17,8.84,17.27Z" transform="translate(-0.68 -3.51)"/><path class="cls-3" d="M13.3,19.18c-.6.34-.82,1.11-.64,1.27s2.05-.88,1.91-1.27C14.5,19,13.81,18.89,13.3,19.18Z" transform="translate(-0.68 -3.51)"/><path class="cls-3" d="M9.48,23c-.6.34-.82,1.11-.64,1.27s2-.88,1.91-1.27C10.68,22.78,10,22.71,9.48,23Z" transform="translate(-0.68 -3.51)"/><path class="cls-4" d="M20.94,6.44c.08-.71-.15-1.78-.63-1.91S19,5.64,18.39,6.44a12.1,12.1,0,0,1-3,2.92,9.28,9.28,0,0,0-6.55-1c-2.93.71-5.44,3-5.1,3.82.1.21.67.88,6.37-.64l2.55,3.83,3.19-.64c1,1.9,1.57,6,2.54,5.73s2.21-4,1.28-6.37a8.9,8.9,0,0,0-2.93-3.83C18.83,9.35,20.77,8.05,20.94,6.44Z" transform="translate(-0.68 -3.51)"/></svg>