<svg id="Layer_1" data-name="Layer 1" xmlns="http://www.w3.org/2000/svg" viewBox="0 0 13.9 13.9"><defs><style>.cls-1{fill:#d8d8d8;}.cls-2{fill:#bca104;}.cls-3{fill:none;stroke:#222;stroke-linecap:round;stroke-linejoin:round;stroke-width:0.77px;}</style></defs><title>combat icon</title><polygon class="cls-1" points="1.93 9.65 11.2 0.39 13.51 0.39 13.51 2.7 4.25 11.97 1.93 9.65"/><polyline class="cls-2" points="1.16 8.88 2.7 8.11 5.79 11.2 5.02 12.74 4.25 12.74 1.16 9.65 1.16 8.88"/><polygon class="cls-2" points="0.39 11.97 0.39 13.51 1.93 13.51 4.25 11.2 2.7 9.65 0.39 11.97"/><polygon class="cls-1" points="9.65 11.97 0.39 2.7 0.39 0.39 2.7 0.39 11.97 9.65 9.65 11.97"/><polyline class="cls-2" points="8.88 12.74 8.11 11.2 11.2 8.11 12.74 8.88 12.74 9.65 9.65 12.74 8.88 12.74"/><polygon class="cls-2" points="11.97 13.51 13.51 13.51 13.51 11.97 11.2 9.65 9.65 11.2 11.97 13.51"/><polygon class="cls-3" points="13.51 2.7 13.51 0.39 11.2 0.39 6.95 4.63 2.7 0.39 0.39 0.39 0.39 2.7 4.63 6.95 3.09 8.49 2.7 8.11 1.16 8.88 1.16 9.65 1.93 10.42 0.39 11.97 0.39 13.51 1.93 13.51 3.48 11.97 4.25 12.74 5.02 12.74 5.79 11.2 5.41 10.81 6.95 9.27 8.49 10.81 8.11 11.2 8.88 12.74 9.65 12.74 10.42 11.97 11.97 13.51 13.51 13.51 13.51 11.97 11.97 10.42 12.74 9.65 12.74 8.88 11.2 8.11 10.81 8.49 9.27 6.95 13.51 2.7"/></svg>