<svg id="Layer_1" data-name="Layer 1" xmlns="http://www.w3.org/2000/svg" viewBox="0 0 12.01 13.21">
    <defs>
        <style>
        .cls-1 {
            fill: #d1ebd3;
            stroke: #222;
            stroke-linecap: round;
            stroke-linejoin: round;
            stroke-width: 0.48px;
        }
        </style>
    </defs>
    <title>prayer icon</title>
    <path class="cls-1" d="M13.77,8.22A8.08,8.08,0,0,1,9.92,5.94,7.31,7.31,0,0,1,8,1.85,7.31,7.31,0,0,1,6.08,5.94,8.08,8.08,0,0,1,2.23,8.22a8.12,8.12,0,0,1,3.85,2.27A7.34,7.34,0,0,1,8,14.58a7.34,7.34,0,0,1,1.92-4.09A8.12,8.12,0,0,1,13.77,8.22Z" transform="translate(-1.99 -1.61)" />
</svg>