<svg id="Layer_1" data-name="Layer 1" xmlns="http://www.w3.org/2000/svg" viewBox="0 0 22.9 22.84"><defs><style>.cls-1{fill:#9b9795;}.cls-2{fill:#222;}.cls-3{fill:#7a3d09;}.cls-4{fill:#9eff74;}.cls-4,.cls-5,.cls-6{stroke:#222;stroke-linecap:round;stroke-linejoin:round;}.cls-5{fill:#ff8274;}.cls-6{fill:none;}</style></defs><title>ranged icon</title><polygon class="cls-1" points="4.17 3.84 19.02 18.69 18.32 20.81 2.05 4.54 4.17 3.84"/><rect class="cls-2" x="-1.67" y="6.42" width="20" height="1" transform="translate(1.52 11.55) rotate(-45)"/><path class="cls-3" d="M11.76,2.48c-.29-1.66.26-2.17,0-3-.33-1.09-1.7-1.56-3-2-.89-.3-3.58-1.22-6,0C1.14-1.7,1-.59-.24-.52c-1.55.09-2.42-2.27-3-2-.37.18-.26,1.28,0,2a3.73,3.73,0,0,0,2,2,3.89,3.89,0,0,0,3,0c1.12-.52,1-1.27,2-2,1.46-1,4-1.12,5,0s-.15,3.15,1,4a1.65,1.65,0,0,0,2,0C12,3.24,11.85,2.94,11.76,2.48Z" transform="translate(3.98 3.63)"/><path class="cls-3" d="M12.8,3.47c1.67.29,2.17-.26,3,0,1.1.33,1.56,1.7,2,3,.31.89,1.22,3.58,0,6-.81,1.62-1.93,1.81-2,3-.08,1.55,2.28,2.42,2,3-.18.37-1.27.27-2,0a3.73,3.73,0,0,1-2-2,4,4,0,0,1,0-3c.53-1.12,1.28-1,2-2,1.05-1.46,1.13-4,0-5s-3.14.15-4-1a1.66,1.66,0,0,1,0-2C12.05,3.28,12.35,3.39,12.8,3.47Z" transform="translate(3.98 3.63)"/><polygon class="cls-4" points="4.17 13.74 8.42 13.74 9.12 14.45 9.12 18.69 7 20.81 5.59 20.81 5.59 17.98 4.88 17.27 2.05 17.27 2.05 15.86 4.17 13.74"/><polygon class="cls-5" points="19.73 4.54 21.14 4.54 21.14 1.72 18.32 1.72 18.32 3.13 19.73 4.54"/><path class="cls-6" d="M17.8,18.47c.28-.58-2.08-1.45-2-3,.07-1.19,1.19-1.38,2-3,1.22-2.42.31-5.11,0-6-.44-1.3-.9-2.67-2-3-.83-.26-1.33.29-3,0-.45-.08-.75-.19-1,0a1.66,1.66,0,0,0,0,2c.86,1.15,2.81-.07,4,1s1.05,3.54,0,5c-.72,1-1.47.88-2,2a2.5,2.5,0,0,0-.09.25L1.55,1.56a1.8,1.8,0,0,0,.21-.08c1.12-.52,1-1.27,2-2,1.46-1,4-1.12,5,0s-.15,3.15,1,4a1.65,1.65,0,0,0,2,0c.19-.24.09-.54,0-1-.29-1.66.26-2.17,0-3-.33-1.09-1.7-1.56-3-2-.89-.3-3.58-1.22-6,0C1.14-1.7,1-.59-.24-.52c-1.55.09-2.42-2.27-3-2-.37.18-.26,1.28,0,2A3.56,3.56,0,0,0-1.47,1.37L14,16.81a3.56,3.56,0,0,0,1.83,1.66C16.53,18.74,17.62,18.84,17.8,18.47Z" transform="translate(3.98 3.63)"/></svg>